<svg width="100%" viewBox="0 0 480 320" xmlns="http://www.w3.org/2000/svg" font-family="monospace">
<defs><linearGradient id="g" x1="0" y1="0" x2="0" y2="1"><stop offset="0" stop-color="#E5544B" stop-opacity="0.8"/><stop offset="0.45" stop-color="#E8C24A" stop-opacity="0.5"/><stop offset="1" stop-color="#36C26B" stop-opacity="0.28"/></linearGradient></defs>
<rect width="480" height="320" fill="#0E1116"/>
<line x1="30" y1="22.0" x2="474" y2="22.0" stroke="#262C35" stroke-width="1"/>
<text x="26" y="25.0" fill="#6B7480" font-size="9" text-anchor="end">0</text>
<line x1="30" y1="68.7" x2="474" y2="68.7" stroke="#262C35" stroke-width="1"/>
<text x="26" y="71.7" fill="#6B7480" font-size="9" text-anchor="end">-10</text>
<line x1="30" y1="115.3" x2="474" y2="115.3" stroke="#262C35" stroke-width="1"/>
<text x="26" y="118.3" fill="#6B7480" font-size="9" text-anchor="end">-20</text>
<line x1="30" y1="162.0" x2="474" y2="162.0" stroke="#262C35" stroke-width="1"/>
<text x="26" y="165.0" fill="#6B7480" font-size="9" text-anchor="end">-30</text>
<line x1="30" y1="208.7" x2="474" y2="208.7" stroke="#262C35" stroke-width="1"/>
<text x="26" y="211.7" fill="#6B7480" font-size="9" text-anchor="end">-40</text>
<line x1="30" y1="255.3" x2="474" y2="255.3" stroke="#262C35" stroke-width="1"/>
<text x="26" y="258.3" fill="#6B7480" font-size="9" text-anchor="end">-50</text>
<line x1="30" y1="302.0" x2="474" y2="302.0" stroke="#262C35" stroke-width="1"/>
<text x="26" y="305.0" fill="#6B7480" font-size="9" text-anchor="end">-60</text>
<line x1="30.0" y1="22" x2="30.0" y2="302" stroke="#2E3742" stroke-width="1"/>
<line x1="88.9" y1="22" x2="88.9" y2="302" stroke="#2E3742" stroke-width="1"/>
<line x1="133.4" y1="22" x2="133.4" y2="302" stroke="#2E3742" stroke-width="1"/>
<line x1="178.0" y1="22" x2="178.0" y2="302" stroke="#2E3742" stroke-width="1"/>
<line x1="236.9" y1="22" x2="236.9" y2="302" stroke="#2E3742" stroke-width="1"/>
<line x1="281.4" y1="22" x2="281.4" y2="302" stroke="#2E3742" stroke-width="1"/>
<line x1="326.0" y1="22" x2="326.0" y2="302" stroke="#2E3742" stroke-width="1"/>
<line x1="384.9" y1="22" x2="384.9" y2="302" stroke="#2E3742" stroke-width="1"/>
<line x1="429.4" y1="22" x2="429.4" y2="302" stroke="#2E3742" stroke-width="1"/>
<line x1="474.0" y1="22" x2="474.0" y2="302" stroke="#2E3742" stroke-width="1"/>
<polygon points="30,302 30.0,267.3 31.7,264.9 33.5,263.3 35.2,265.5 37.0,266.7 38.7,267.6 40.4,269.2 42.2,267.7 43.9,264.6 45.7,265.7 47.4,270.0 49.2,272.1 50.9,270.0 52.6,265.3 54.4,266.0 56.1,268.0 57.9,262.9 59.6,260.4 61.3,263.3 63.1,266.8 64.8,271.4 66.6,272.4 68.3,270.6 70.0,271.9 71.8,272.5 73.5,272.4 75.3,272.2 77.0,269.5 78.8,266.2 80.5,264.3 82.2,264.8 84.0,265.7 85.7,265.7 87.5,241.4 89.2,193.7 90.9,166.4 92.7,158.0 94.4,152.6 96.2,151.3 97.9,151.6 99.6,152.6 101.4,151.5 103.1,149.1 104.9,144.6 106.6,138.0 108.4,133.0 110.1,129.5 111.8,125.9 113.6,120.3 115.3,119.2 117.1,122.6 118.8,118.1 120.5,109.6 122.3,104.3 124.0,99.8 125.8,98.5 127.5,94.7 129.2,82.8 131.0,72.3 132.7,66.9 134.5,59.9 136.2,47.6 138.0,36.1 139.7,34.7 141.4,40.4 143.2,45.2 144.9,50.2 146.7,52.9 148.4,53.8 150.1,57.7 151.9,59.7 153.6,61.1 155.4,61.4 157.1,59.9 158.8,59.4 160.6,58.6 162.3,58.3 164.1,57.4 165.8,56.1 167.6,51.7 169.3,43.8 171.0,41.2 172.8,39.5 174.5,34.3 176.3,30.6 178.0,30.4 179.7,30.4 181.5,30.4 183.2,30.4 185.0,30.4 186.7,30.4 188.4,30.4 190.2,30.4 191.9,34.2 193.7,43.6 195.4,50.9 197.2,54.0 198.9,54.6 200.6,56.5 202.4,58.0 204.1,60.0 205.9,60.0 207.6,59.1 209.3,62.2 211.1,63.7 212.8,64.9 214.6,70.1 216.3,69.9 218.0,63.1 219.8,61.1 221.5,63.9 223.3,61.8 225.0,54.5 226.8,53.1 228.5,56.8 230.2,57.7 232.0,62.2 233.7,73.1 235.5,85.3 237.2,97.2 238.9,102.6 240.7,104.8 242.4,110.6 244.2,116.3 245.9,119.9 247.6,121.6 249.4,125.9 251.1,133.2 252.9,136.3 254.6,138.0 256.4,143.2 258.1,145.6 259.8,142.8 261.6,141.2 263.3,143.8 265.1,144.6 266.8,142.9 268.5,146.2 270.3,149.6 272.0,148.6 273.8,150.3 275.5,156.5 277.2,162.1 279.0,165.7 280.7,171.8 282.5,180.3 284.2,183.9 286.0,183.2 287.7,185.9 289.4,191.8 291.2,196.6 292.9,202.1 294.7,209.3 296.4,214.6 298.1,213.8 299.9,209.4 301.6,208.3 303.4,212.5 305.1,217.9 306.8,218.0 308.6,215.7 310.3,215.6 312.1,214.5 313.8,213.8 315.6,216.6 317.3,216.5 319.0,214.0 320.8,215.4 322.5,219.9 324.3,224.6 326.0,227.6 327.7,232.4 329.5,238.6 331.2,240.0 333.0,239.2 334.7,242.3 336.4,246.2 338.2,246.1 339.9,246.3 341.7,249.4 343.4,252.2 345.2,254.2 346.9,254.4 348.6,256.5 350.4,259.3 352.1,256.2 353.9,252.2 355.6,253.0 357.3,256.9 359.1,259.7 360.8,259.5 362.6,260.6 364.3,261.3 366.0,262.3 367.8,264.7 369.5,265.9 371.3,267.2 373.0,266.4 374.8,266.5 376.5,267.6 378.2,265.9 380.0,265.6 381.7,264.5 383.5,264.6 385.2,270.2 386.9,274.1 388.7,271.4 390.4,269.3 392.2,272.1 393.9,271.5 395.6,266.7 397.4,266.8 399.1,268.0 400.9,267.7 402.6,269.3 404.4,271.0 406.1,272.7 407.8,271.2 409.6,266.8 411.3,264.6 413.1,266.6 414.8,270.2 416.5,271.8 418.3,274.1 420.0,275.3 421.8,271.7 423.5,267.3 425.2,266.5 427.0,266.6 428.7,268.1 430.5,273.3 432.2,275.9 434.0,274.7 435.7,275.3 437.4,275.8 439.2,273.5 440.9,271.5 442.7,272.5 444.4,272.4 446.1,268.2 447.9,267.0 449.6,272.5 451.4,278.1 453.1,276.5 454.8,273.1 456.6,273.8 458.3,272.3 460.1,271.8 461.8,272.5 463.6,272.8 465.3,276.8 467.0,277.8 468.8,276.4 470.5,275.3 472.3,272.8 474.0,274.4 474,302" fill="url(#g)"/>
<polyline points="30.0,267.3 31.7,264.9 33.5,263.3 35.2,265.5 37.0,266.7 38.7,267.6 40.4,269.2 42.2,267.7 43.9,264.6 45.7,265.7 47.4,270.0 49.2,272.1 50.9,270.0 52.6,265.3 54.4,266.0 56.1,268.0 57.9,262.9 59.6,260.4 61.3,263.3 63.1,266.8 64.8,271.4 66.6,272.4 68.3,270.6 70.0,271.9 71.8,272.5 73.5,272.4 75.3,272.2 77.0,269.5 78.8,266.2 80.5,264.3 82.2,264.8 84.0,265.7 85.7,265.7 87.5,241.4 89.2,193.7 90.9,166.4 92.7,158.0 94.4,152.6 96.2,151.3 97.9,151.6 99.6,152.6 101.4,151.5 103.1,149.1 104.9,144.6 106.6,138.0 108.4,133.0 110.1,129.5 111.8,125.9 113.6,120.3 115.3,119.2 117.1,122.6 118.8,118.1 120.5,109.6 122.3,104.3 124.0,99.8 125.8,98.5 127.5,94.7 129.2,82.8 131.0,72.3 132.7,66.9 134.5,59.9 136.2,47.6 138.0,36.1 139.7,34.7 141.4,40.4 143.2,45.2 144.9,50.2 146.7,52.9 148.4,53.8 150.1,57.7 151.9,59.7 153.6,61.1 155.4,61.4 157.1,59.9 158.8,59.4 160.6,58.6 162.3,58.3 164.1,57.4 165.8,56.1 167.6,51.7 169.3,43.8 171.0,41.2 172.8,39.5 174.5,34.3 176.3,30.6 178.0,30.4 179.7,30.4 181.5,30.4 183.2,30.4 185.0,30.4 186.7,30.4 188.4,30.4 190.2,30.4 191.9,34.2 193.7,43.6 195.4,50.9 197.2,54.0 198.9,54.6 200.6,56.5 202.4,58.0 204.1,60.0 205.9,60.0 207.6,59.1 209.3,62.2 211.1,63.7 212.8,64.9 214.6,70.1 216.3,69.9 218.0,63.1 219.8,61.1 221.5,63.9 223.3,61.8 225.0,54.5 226.8,53.1 228.5,56.8 230.2,57.7 232.0,62.2 233.7,73.1 235.5,85.3 237.2,97.2 238.9,102.6 240.7,104.8 242.4,110.6 244.2,116.3 245.9,119.9 247.6,121.6 249.4,125.9 251.1,133.2 252.9,136.3 254.6,138.0 256.4,143.2 258.1,145.6 259.8,142.8 261.6,141.2 263.3,143.8 265.1,144.6 266.8,142.9 268.5,146.2 270.3,149.6 272.0,148.6 273.8,150.3 275.5,156.5 277.2,162.1 279.0,165.7 280.7,171.8 282.5,180.3 284.2,183.9 286.0,183.2 287.7,185.9 289.4,191.8 291.2,196.6 292.9,202.1 294.7,209.3 296.4,214.6 298.1,213.8 299.9,209.4 301.6,208.3 303.4,212.5 305.1,217.9 306.8,218.0 308.6,215.7 310.3,215.6 312.1,214.5 313.8,213.8 315.6,216.6 317.3,216.5 319.0,214.0 320.8,215.4 322.5,219.9 324.3,224.6 326.0,227.6 327.7,232.4 329.5,238.6 331.2,240.0 333.0,239.2 334.7,242.3 336.4,246.2 338.2,246.1 339.9,246.3 341.7,249.4 343.4,252.2 345.2,254.2 346.9,254.4 348.6,256.5 350.4,259.3 352.1,256.2 353.9,252.2 355.6,253.0 357.3,256.9 359.1,259.7 360.8,259.5 362.6,260.6 364.3,261.3 366.0,262.3 367.8,264.7 369.5,265.9 371.3,267.2 373.0,266.4 374.8,266.5 376.5,267.6 378.2,265.9 380.0,265.6 381.7,264.5 383.5,264.6 385.2,270.2 386.9,274.1 388.7,271.4 390.4,269.3 392.2,272.1 393.9,271.5 395.6,266.7 397.4,266.8 399.1,268.0 400.9,267.7 402.6,269.3 404.4,271.0 406.1,272.7 407.8,271.2 409.6,266.8 411.3,264.6 413.1,266.6 414.8,270.2 416.5,271.8 418.3,274.1 420.0,275.3 421.8,271.7 423.5,267.3 425.2,266.5 427.0,266.6 428.7,268.1 430.5,273.3 432.2,275.9 434.0,274.7 435.7,275.3 437.4,275.8 439.2,273.5 440.9,271.5 442.7,272.5 444.4,272.4 446.1,268.2 447.9,267.0 449.6,272.5 451.4,278.1 453.1,276.5 454.8,273.1 456.6,273.8 458.3,272.3 460.1,271.8 461.8,272.5 463.6,272.8 465.3,276.8 467.0,277.8 468.8,276.4 470.5,275.3 472.3,272.8 474.0,274.4" fill="none" stroke="#F2F4F7" stroke-width="1.5"/>
<polyline points="30.0,251.8 31.7,250.4 33.5,242.3 35.2,246.5 37.0,245.7 38.7,246.2 40.4,246.2 42.2,242.9 43.9,243.0 45.7,249.5 47.4,250.7 49.2,256.1 50.9,255.8 52.6,246.0 54.4,244.0 56.1,252.0 57.9,245.9 59.6,242.6 61.3,241.5 63.1,247.0 64.8,250.5 66.6,249.9 68.3,252.2 70.0,249.0 71.8,248.4 73.5,257.5 75.3,247.7 77.0,247.4 78.8,250.8 80.5,245.2 82.2,243.8 84.0,241.6 85.7,247.5 87.5,221.1 89.2,169.9 90.9,143.5 92.7,133.5 94.4,133.4 96.2,130.0 97.9,135.3 99.6,130.5 101.4,128.4 103.1,127.9 104.9,122.5 106.6,121.6 108.4,108.9 110.1,104.6 111.8,101.0 113.6,100.3 115.3,96.3 117.1,105.0 118.8,93.9 120.5,86.1 122.3,86.4 124.0,84.9 125.8,79.5 127.5,74.5 129.2,60.2 131.0,52.8 132.7,52.6 134.5,36.9 136.2,32.9 138.0,24.8 139.7,24.8 141.4,24.8 143.2,24.8 144.9,34.6 146.7,37.2 148.4,34.0 150.1,35.6 151.9,36.3 153.6,39.4 155.4,36.8 157.1,40.3 158.8,34.8 160.6,43.7 162.3,41.8 164.1,37.5 165.8,38.8 167.6,29.5 169.3,24.8 171.0,24.8 172.8,24.8 174.5,24.8 176.3,24.8 178.0,24.8 179.7,24.8 181.5,24.8 183.2,24.8 185.0,24.8 186.7,24.8 188.4,24.8 190.2,24.8 191.9,24.8 193.7,24.8 195.4,31.3 197.2,33.2 198.9,40.2 200.6,31.6 202.4,38.3 204.1,41.5 205.9,37.0 207.6,38.8 209.3,42.7 211.1,42.0 212.8,50.1 214.6,50.1 216.3,51.3 218.0,38.3 219.8,36.7 221.5,46.9 223.3,42.5 225.0,39.1 226.8,34.2 228.5,33.6 230.2,33.6 232.0,42.9 233.7,55.5 235.5,69.2 237.2,76.2 238.9,78.3 240.7,89.3 242.4,87.8 244.2,102.1 245.9,103.7 247.6,105.1 249.4,104.2 251.1,115.6 252.9,118.3 254.6,117.0 256.4,128.1 258.1,123.5 259.8,127.5 261.6,121.5 263.3,127.0 265.1,128.4 266.8,122.9 268.5,127.3 270.3,131.4 272.0,129.9 273.8,130.3 275.5,140.7 277.2,145.8 279.0,144.6 280.7,150.7 282.5,160.3 284.2,160.4 286.0,162.4 287.7,162.4 289.4,175.2 291.2,174.3 292.9,179.0 294.7,185.2 296.4,197.1 298.1,196.3 299.9,185.1 301.6,191.8 303.4,187.3 305.1,194.0 306.8,202.5 308.6,199.0 310.3,193.4 312.1,197.6 313.8,198.7 315.6,193.3 317.3,197.7 319.0,191.2 320.8,200.0 322.5,201.4 324.3,202.9 326.0,213.4 327.7,216.2 329.5,216.9 331.2,215.8 333.0,214.4 334.7,227.0 336.4,226.6 338.2,223.6 339.9,226.7 341.7,227.7 343.4,236.1 345.2,239.4 346.9,239.2 348.6,242.0 350.4,239.1 352.1,236.4 353.9,231.8 355.6,237.4 357.3,240.9 359.1,243.4 360.8,236.1 362.6,235.5 364.3,236.9 366.0,247.3 367.8,250.0 369.5,241.2 371.3,248.0 373.0,243.8 374.8,248.8 376.5,248.3 378.2,246.2 380.0,246.7 381.7,243.8 383.5,250.4 385.2,248.3 386.9,250.7 388.7,255.4 390.4,250.2 392.2,249.8 393.9,253.0 395.6,250.6 397.4,251.0 399.1,248.3 400.9,253.5 402.6,245.3 404.4,248.0 406.1,250.8 407.8,247.6 409.6,245.7 411.3,246.0 413.1,245.9 414.8,250.5 416.5,246.8 418.3,251.1 420.0,258.4 421.8,247.5 423.5,245.0 425.2,243.8 427.0,243.5 428.7,249.6 430.5,249.2 432.2,252.0 434.0,253.0 435.7,252.7 437.4,253.2 439.2,255.0 440.9,249.4 442.7,257.7 444.4,254.6 446.1,248.9 447.9,252.9 449.6,254.5 451.4,256.9 453.1,255.5 454.8,256.5 456.6,249.2 458.3,250.8 460.1,254.0 461.8,251.1 463.6,252.5 465.3,256.8 467.0,259.4 468.8,251.2 470.5,254.1 472.3,251.0 474.0,251.9" fill="none" stroke="#C9D2DC" stroke-width="1" stroke-opacity="0.4"/>
<text x="30.0" y="315" fill="#6B7480" font-size="9" text-anchor="start">20</text>
<text x="88.9" y="315" fill="#6B7480" font-size="9" text-anchor="middle">50</text>
<text x="133.4" y="315" fill="#6B7480" font-size="9" text-anchor="middle">100</text>
<text x="178.0" y="315" fill="#6B7480" font-size="9" text-anchor="middle">200</text>
<text x="236.9" y="315" fill="#6B7480" font-size="9" text-anchor="middle">500</text>
<text x="281.4" y="315" fill="#6B7480" font-size="9" text-anchor="middle">1k</text>
<text x="326.0" y="315" fill="#6B7480" font-size="9" text-anchor="middle">2k</text>
<text x="384.9" y="315" fill="#6B7480" font-size="9" text-anchor="middle">5k</text>
<text x="429.4" y="315" fill="#6B7480" font-size="9" text-anchor="middle">10k</text>
<text x="474.0" y="315" fill="#6B7480" font-size="9" text-anchor="end">20k</text>
<text x="30" y="15" fill="#7FD4A8" font-size="11" font-weight="bold">MONITOR</text>
<text x="102" y="15" fill="#4A525C" font-size="9">256pt · 20Hz-20kHz</text>
</svg>