<svg width="100%" viewBox="0 0 480 320" xmlns="http://www.w3.org/2000/svg" font-family="monospace">
<rect x="0" y="0" width="480" height="320" fill="#0E1116"/>
<line x1="30" y1="22.0" x2="474" y2="22.0" stroke="#262C35" stroke-width="1"/>
<text x="26" y="25.0" fill="#6B7480" font-size="9" text-anchor="end">0</text>
<line x1="30" y1="68.7" x2="474" y2="68.7" stroke="#262C35" stroke-width="1"/>
<text x="26" y="71.7" fill="#6B7480" font-size="9" text-anchor="end">-10</text>
<line x1="30" y1="115.3" x2="474" y2="115.3" stroke="#262C35" stroke-width="1"/>
<text x="26" y="118.3" fill="#6B7480" font-size="9" text-anchor="end">-20</text>
<line x1="30" y1="162.0" x2="474" y2="162.0" stroke="#262C35" stroke-width="1"/>
<text x="26" y="165.0" fill="#6B7480" font-size="9" text-anchor="end">-30</text>
<line x1="30" y1="208.7" x2="474" y2="208.7" stroke="#262C35" stroke-width="1"/>
<text x="26" y="211.7" fill="#6B7480" font-size="9" text-anchor="end">-40</text>
<line x1="30" y1="255.3" x2="474" y2="255.3" stroke="#262C35" stroke-width="1"/>
<text x="26" y="258.3" fill="#6B7480" font-size="9" text-anchor="end">-50</text>
<line x1="30" y1="302.0" x2="474" y2="302.0" stroke="#262C35" stroke-width="1"/>
<text x="26" y="305.0" fill="#6B7480" font-size="9" text-anchor="end">-60</text>
<rect x="31.2" y="98.4" width="11.5" height="203.6" fill="#E8C24A" rx="1"/>
<rect x="31.2" y="74.9" width="11.5" height="2" fill="#C9D2DC"/>
<rect x="45.1" y="87.9" width="11.5" height="214.1" fill="#E8C24A" rx="1"/>
<rect x="45.1" y="75.3" width="11.5" height="2" fill="#C9D2DC"/>
<rect x="59.0" y="45.0" width="11.5" height="257.0" fill="#E5544B" rx="1"/>
<rect x="59.0" y="32.5" width="11.5" height="2" fill="#C9D2DC"/>
<rect x="72.8" y="58.7" width="11.5" height="243.3" fill="#E5544B" rx="1"/>
<rect x="72.8" y="42.9" width="11.5" height="2" fill="#C9D2DC"/>
<rect x="86.7" y="36.0" width="11.5" height="266.0" fill="#E5544B" rx="1"/>
<rect x="86.7" y="30.4" width="11.5" height="2" fill="#C9D2DC"/>
<rect x="100.6" y="36.0" width="11.5" height="266.0" fill="#E5544B" rx="1"/>
<rect x="100.6" y="30.4" width="11.5" height="2" fill="#C9D2DC"/>
<rect x="114.5" y="36.0" width="11.5" height="266.0" fill="#E5544B" rx="1"/>
<rect x="114.5" y="30.4" width="11.5" height="2" fill="#C9D2DC"/>
<rect x="128.3" y="36.0" width="11.5" height="266.0" fill="#E5544B" rx="1"/>
<rect x="128.3" y="30.4" width="11.5" height="2" fill="#C9D2DC"/>
<rect x="142.2" y="38.9" width="11.5" height="263.1" fill="#E5544B" rx="1"/>
<rect x="142.2" y="30.4" width="11.5" height="2" fill="#C9D2DC"/>
<rect x="156.1" y="36.0" width="11.5" height="266.0" fill="#E5544B" rx="1"/>
<rect x="156.1" y="30.4" width="11.5" height="2" fill="#C9D2DC"/>
<rect x="169.9" y="58.0" width="11.5" height="244.0" fill="#E5544B" rx="1"/>
<rect x="169.9" y="30.4" width="11.5" height="2" fill="#C9D2DC"/>
<rect x="183.8" y="72.2" width="11.5" height="229.8" fill="#E8C24A" rx="1"/>
<rect x="183.8" y="45.4" width="11.5" height="2" fill="#C9D2DC"/>
<rect x="197.7" y="73.0" width="11.5" height="229.0" fill="#E8C24A" rx="1"/>
<rect x="197.7" y="56.4" width="11.5" height="2" fill="#C9D2DC"/>
<rect x="211.6" y="71.9" width="11.5" height="230.1" fill="#E8C24A" rx="1"/>
<rect x="211.6" y="47.8" width="11.5" height="2" fill="#C9D2DC"/>
<rect x="225.4" y="127.0" width="11.5" height="175.0" fill="#E8C24A" rx="1"/>
<rect x="225.4" y="104.1" width="11.5" height="2" fill="#C9D2DC"/>
<rect x="239.3" y="141.6" width="11.5" height="160.4" fill="#36C26B" rx="1"/>
<rect x="239.3" y="110.8" width="11.5" height="2" fill="#C9D2DC"/>
<rect x="253.2" y="140.1" width="11.5" height="161.9" fill="#36C26B" rx="1"/>
<rect x="253.2" y="112.5" width="11.5" height="2" fill="#C9D2DC"/>
<rect x="267.1" y="141.4" width="11.5" height="160.6" fill="#36C26B" rx="1"/>
<rect x="267.1" y="123.8" width="11.5" height="2" fill="#C9D2DC"/>
<rect x="280.9" y="175.9" width="11.5" height="126.1" fill="#36C26B" rx="1"/>
<rect x="280.9" y="142.8" width="11.5" height="2" fill="#C9D2DC"/>
<rect x="294.8" y="199.0" width="11.5" height="103.0" fill="#36C26B" rx="1"/>
<rect x="294.8" y="185.1" width="11.5" height="2" fill="#C9D2DC"/>
<rect x="308.7" y="181.7" width="11.5" height="120.3" fill="#36C26B" rx="1"/>
<rect x="308.7" y="161.1" width="11.5" height="2" fill="#C9D2DC"/>
<rect x="322.6" y="238.5" width="11.5" height="63.5" fill="#36C26B" rx="1"/>
<rect x="322.6" y="210.3" width="11.5" height="2" fill="#C9D2DC"/>
<rect x="336.4" y="205.7" width="11.5" height="96.3" fill="#36C26B" rx="1"/>
<rect x="336.4" y="191.1" width="11.5" height="2" fill="#C9D2DC"/>
<rect x="350.3" y="240.9" width="11.5" height="61.1" fill="#36C26B" rx="1"/>
<rect x="350.3" y="218.7" width="11.5" height="2" fill="#C9D2DC"/>
<rect x="364.2" y="253.3" width="11.5" height="48.7" fill="#36C26B" rx="1"/>
<rect x="364.2" y="241.2" width="11.5" height="2" fill="#C9D2DC"/>
<rect x="378.1" y="258.5" width="11.5" height="43.5" fill="#36C26B" rx="1"/>
<rect x="378.1" y="232.3" width="11.5" height="2" fill="#C9D2DC"/>
<rect x="391.9" y="251.7" width="11.5" height="50.3" fill="#36C26B" rx="1"/>
<rect x="391.9" y="223.4" width="11.5" height="2" fill="#C9D2DC"/>
<rect x="405.8" y="228.3" width="11.5" height="73.7" fill="#36C26B" rx="1"/>
<rect x="405.8" y="204.2" width="11.5" height="2" fill="#C9D2DC"/>
<rect x="419.7" y="261.8" width="11.5" height="40.2" fill="#36C26B" rx="1"/>
<rect x="419.7" y="231.0" width="11.5" height="2" fill="#C9D2DC"/>
<rect x="433.6" y="242.6" width="11.5" height="59.4" fill="#36C26B" rx="1"/>
<rect x="433.6" y="224.4" width="11.5" height="2" fill="#C9D2DC"/>
<rect x="447.4" y="240.5" width="11.5" height="61.5" fill="#36C26B" rx="1"/>
<rect x="447.4" y="213.7" width="11.5" height="2" fill="#C9D2DC"/>
<rect x="461.3" y="254.4" width="11.5" height="47.6" fill="#36C26B" rx="1"/>
<rect x="461.3" y="229.9" width="11.5" height="2" fill="#C9D2DC"/>
<text x="51.5" y="315" fill="#6B7480" font-size="9" text-anchor="middle">100</text>
<text x="139.9" y="315" fill="#6B7480" font-size="9" text-anchor="middle">250</text>
<text x="206.7" y="315" fill="#6B7480" font-size="9" text-anchor="middle">500</text>
<text x="273.5" y="315" fill="#6B7480" font-size="9" text-anchor="middle">1k</text>
<text x="340.3" y="315" fill="#6B7480" font-size="9" text-anchor="middle">2k</text>
<text x="407.2" y="315" fill="#6B7480" font-size="9" text-anchor="middle">4k</text>
<text x="474.0" y="315" fill="#6B7480" font-size="9" text-anchor="middle">8k</text>
<text x="30" y="15" fill="#7FD4A8" font-size="11" font-weight="bold">MONITOR</text>
<text x="100" y="15" fill="#4A525C" font-size="9">dB · rel</text>
<text x="474" y="15" fill="#4A525C" font-size="10" text-anchor="end">CLIP</text>
</svg>